<svg width="60" height="38" viewBox="0 0 60 38" fill="none" xmlns="http://www.w3.org/2000/svg">
<path d="M18.7541 30.7521L17.1148 32.1182C16.8962 32.3003 16.6448 32.3914 16.3607 32.3914C16.0765 32.3914 15.8251 32.3003 15.6066 32.1182L0.327869 19.386C0.10929 19.2038 0 18.9943 0 18.7575C0 18.5207 0.10929 18.3113 0.327869 18.1291L15.6066 5.39688C15.8251 5.21473 16.0765 5.12365 16.3607 5.12365C16.6448 5.12365 16.8962 5.21473 17.1148 5.39688L18.7541 6.763C18.9727 6.94515 19.082 7.15462 19.082 7.39142C19.082 7.62821 18.9727 7.83768 18.7541 8.01983L5.86885 18.7575L18.7541 29.4952C18.9727 29.6774 19.082 29.8869 19.082 30.1237C19.082 30.3605 18.9727 30.5699 18.7541 30.7521ZM38.1311 1.59907L25.9016 36.8723C25.8142 37.1091 25.6448 37.2867 25.3934 37.4051C25.1421 37.5235 24.8852 37.5462 24.6229 37.4734L22.5902 37.0089C22.306 36.936 22.0929 36.7949 21.9508 36.5854C21.8087 36.3759 21.7814 36.1528 21.8689 35.916L34.0984 0.642781C34.1858 0.405987 34.3552 0.228391 34.6066 0.109994C34.8579 -0.00840275 35.1148 -0.0311716 35.377 0.041688L37.4098 0.506169C37.694 0.579028 37.9071 0.720195 38.0492 0.929666C38.1913 1.13914 38.2186 1.36227 38.1311 1.59907ZM59.6721 19.386L44.3934 32.1182C44.1749 32.3003 43.9235 32.3914 43.6393 32.3914C43.3552 32.3914 43.1038 32.3003 42.8852 32.1182L41.2459 30.7521C41.0273 30.5699 40.918 30.3605 40.918 30.1237C40.918 29.8869 41.0273 29.6774 41.2459 29.4952L54.1311 18.7575L41.2459 8.01983C41.0273 7.83768 40.918 7.62821 40.918 7.39142C40.918 7.15462 41.0273 6.94515 41.2459 6.763L42.8852 5.39688C43.1038 5.21473 43.3552 5.12365 43.6393 5.12365C43.9235 5.12365 44.1749 5.21473 44.3934 5.39688L59.6721 18.1291C59.8907 18.3113 60 18.5207 60 18.7575C60 18.9943 59.8907 19.2038 59.6721 19.386Z" fill="#1E407D"/>
</svg>
