<?xml version="1.0" encoding="utf-8"?>
<!-- Generator: Adobe Illustrator 28.2.0, SVG Export Plug-In . SVG Version: 6.00 Build 0)  -->
<svg version="1.1" id="Layer_1" xmlns="http://www.w3.org/2000/svg" xmlns:xlink="http://www.w3.org/1999/xlink" x="0px" y="0px"
	 viewBox="0 0 654.69 306.89" style="enable-background:new 0 0 654.69 306.89;" xml:space="preserve">
<style type="text/css">
	.st0{fill:#21409A;stroke:#000000;stroke-miterlimit:10;}
	.st1{fill:#363639;stroke:#000000;stroke-miterlimit:10;}
</style>
<g>
	<g>
		<path class="st0" d="M4.35,148.25c74.52-11.57,74.34-49.19,74.34-49.19s0.26-43.66,0-57.7S53.15,19.91,53.15,19.91L4.35,2.29
			V148.25z"/>
		<path class="st0" d="M257.32,303.4c-74.52-11.57-74.34-49.19-74.34-49.19s-0.26-43.66,0-57.7c0.26-14.04,25.53-21.45,25.53-21.45
			l48.8-17.62V303.4z"/>
		<path class="st0" d="M256.95,2.29c0,0-60.6,20.94-63.32,23.15s-7.49,4.94-8.17,13.11c-0.68,8.17,0,49.7,0,49.7
			s-1.36,13.11-10.89,16.34c-8.58,2.91-127.28,49.15-150.85,58.34c-2.61,1.02-17.84,12.3-18.35,20.47s-1.02,120-1.02,120
			l65.28-25.19c0,0,7.4-5.11,7.66-13.02c0.26-7.91-0.77-48.26-0.77-48.26s1.79-14.04,14.04-18.13
			c12.26-4.09,151.15-57.96,151.15-57.96s14.38-4.09,15.23-22.47C257.8,99.99,256.95,2.29,256.95,2.29z"/>
	</g>
	<g>
		<path class="st1" d="M324.98,206.14l38.57-0.64l-7.01,17.85l42.4-0.64l-8.61,23.59c0,0-0.96,7.65-10.52,8.93
			c-9.56,1.28-39.21,0.96-39.21,0.96l-20.4,47.5l-20.08-40.8L324.98,206.14z"/>
		<path class="st1" d="M428.9,157.69H271.75l28.05,62.48l13.39-29.33l94.36,0.32c0,0,6.06,2.55,12.75-12.43
			C426.99,163.74,428.9,157.69,428.9,157.69z"/>
	</g>
	<g>
		<polygon class="st1" points="525.44,203.01 637.62,202.78 651.88,224.16 594.64,223.47 581.76,242.55 636.7,243.01 623.6,263.24 
			566.82,263.01 553.49,283.01 609.35,282.55 595.79,302.78 539.46,302.55 524.98,283.24 539.69,262.78 511.65,262.55 
			525.21,243.24 553.49,243.47 567.74,223.47 510.96,223.24 		"/>
	</g>
	<g>
		<polygon class="st1" points="428.63,219.12 419.27,237.1 399.32,203.36 515.08,203.36 477.15,269.12 458.78,269.12 486.02,219.86 
					"/>
		<polygon class="st1" points="438.48,236.24 458.78,236.24 429.37,285.62 487.25,285.62 496.86,269.12 515.08,303.36 
			399.32,303.36 		"/>
	</g>
</g>
</svg>
