<svg width="44" height="45" viewBox="0 0 44 45" fill="none" xmlns="http://www.w3.org/2000/svg">
<path d="M2.52632 45L5.68421 42.9167L2.94737 41.25L2.52632 45ZM23.1579 13.75L19.7895 11.875H19.3684L3.78947 38.9583V39.375L7.36842 41.25H7.57895L23.1579 14.1667V13.75ZM11.3684 21.4583H0.210526L0 27.5C0 27.7083 0.210526 28.125 0.210526 28.3333H7.36842L11.3684 21.4583ZM40.4211 39.5833L39.5789 40.2083C39.1579 40.625 39.1579 41.0417 39.7895 42.0833C40.4211 42.9167 41.4737 43.3333 42.5263 43.75C42.7368 43.75 42.9474 43.9583 43.1579 43.9583C43.1579 42.2917 42.7368 40.625 42.1053 39.7917C41.6842 39.5833 41.0526 39.375 40.4211 39.5833ZM21.4737 21.4583L17.4737 28.3333H29.2632C28.4211 26.6667 27.3684 24.375 26.1053 21.4583H21.4737ZM34.3158 21.4583C34.5263 22.0833 34.9474 22.5 35.1579 23.125L36.2105 25.2083L36.4211 25.4167L37.8947 27.9167C37.8947 28.125 38.1053 28.125 38.1053 28.3333H43.7895C44 28.125 44 27.7083 44 27.5V21.4583H34.3158ZM39.7895 37.7083C40 37.5 40 37.2917 40 37.0833L38.3158 33.9583C38.3158 33.75 38.1053 33.75 37.8947 33.75L37.2632 34.1667C37.0526 34.375 36.8421 34.375 36.4211 34.5833L36.2105 34.7917H36L35.7895 35C35.5789 35.2083 35.5789 35.2083 35.7895 35.4167L37.8947 38.5417C37.8947 38.75 38.1053 38.75 38.3158 38.75L38.5263 38.5417C38.7368 38.3333 38.9474 38.3333 39.1579 38.3333L39.7895 37.7083ZM37.0526 31.4583V30.625C36.8421 30.4167 36.6316 29.7917 36.2105 28.9583L34.9474 26.4583V26.25L34.7368 26.0417C34.7368 25.8333 34.5263 25.8333 34.5263 25.625L33.8947 24.375C33.8947 24.375 33.8947 24.1667 33.6842 24.1667C30.3158 17.9167 28 13.75 26.5263 11.4583C25.4737 10 24.6316 8.125 23.5789 6.45833C22.3158 4.375 20.8421 1.66667 19.5789 0C20.2105 2.70833 22.7368 8.125 23.7895 10.625L24.2105 11.6667V12.0833C25.0526 12.7083 25.4737 13.75 25.2632 14.5833C29.4737 24.375 33.2632 31.875 34.1053 32.7083C34.7368 32.9167 34.9474 32.9167 35.3684 32.7083L36.6316 32.0833C36.6316 31.875 37.0526 31.6667 37.0526 31.4583Z" fill="#1E407D"/>
</svg>
