<svg width="90" height="90" viewBox="0 0 90 90" fill="none" xmlns="http://www.w3.org/2000/svg">
<path d="M9 21.0001C8.60247 20.9944 8.20778 21.0679 7.83887 21.2161C7.46997 21.3644 7.13421 21.5844 6.8511 21.8636C6.56799 22.1427 6.34318 22.4753 6.18974 22.8421C6.03629 23.2089 5.95728 23.6025 5.95728 24.0001C5.95728 24.3976 6.03629 24.7912 6.18974 25.158C6.34318 25.5248 6.56799 25.8574 6.8511 26.1365C7.13421 26.4157 7.46997 26.6358 7.83887 26.784C8.20778 26.9322 8.60247 27.0057 9 27.0001H81C81.3975 27.0057 81.7922 26.9322 82.1611 26.784C82.53 26.6358 82.8658 26.4157 83.1489 26.1365C83.432 25.8574 83.6568 25.5248 83.8103 25.158C83.9637 24.7912 84.0427 24.3976 84.0427 24.0001C84.0427 23.6025 83.9637 23.2089 83.8103 22.8421C83.6568 22.4753 83.432 22.1427 83.1489 21.8636C82.8658 21.5844 82.53 21.3644 82.1611 21.2161C81.7922 21.0679 81.3975 20.9944 81 21.0001H9ZM9 42.0001C8.60247 41.9944 8.20778 42.0679 7.83887 42.2161C7.46997 42.3644 7.13421 42.5844 6.8511 42.8636C6.56799 43.1427 6.34318 43.4753 6.18974 43.8421C6.03629 44.2089 5.95728 44.6025 5.95728 45.0001C5.95728 45.3976 6.03629 45.7912 6.18974 46.158C6.34318 46.5248 6.56799 46.8574 6.8511 47.1365C7.13421 47.4157 7.46997 47.6358 7.83887 47.784C8.20778 47.9322 8.60247 48.0057 9 48.0001H81C81.3975 48.0057 81.7922 47.9322 82.1611 47.784C82.53 47.6358 82.8658 47.4157 83.1489 47.1365C83.432 46.8574 83.6568 46.5248 83.8103 46.158C83.9637 45.7912 84.0427 45.3976 84.0427 45.0001C84.0427 44.6025 83.9637 44.2089 83.8103 43.8421C83.6568 43.4753 83.432 43.1427 83.1489 42.8636C82.8658 42.5844 82.53 42.3644 82.1611 42.2161C81.7922 42.0679 81.3975 41.9944 81 42.0001H9ZM9 63.0001C8.60247 62.9944 8.20778 63.0679 7.83887 63.2161C7.46997 63.3644 7.13421 63.5844 6.8511 63.8636C6.56799 64.1427 6.34318 64.4753 6.18974 64.8421C6.03629 65.2089 5.95728 65.6025 5.95728 66.0001C5.95728 66.3976 6.03629 66.7912 6.18974 67.158C6.34318 67.5248 6.56799 67.8574 6.8511 68.1365C7.13421 68.4157 7.46997 68.6358 7.83887 68.784C8.20778 68.9322 8.60247 69.0057 9 69.0001H81C81.3975 69.0057 81.7922 68.9322 82.1611 68.784C82.53 68.6358 82.8658 68.4157 83.1489 68.1365C83.432 67.8574 83.6568 67.5248 83.8103 67.158C83.9637 66.7912 84.0427 66.3976 84.0427 66.0001C84.0427 65.6025 83.9637 65.2089 83.8103 64.8421C83.6568 64.4753 83.432 64.1427 83.1489 63.8636C82.8658 63.5844 82.53 63.3644 82.1611 63.2161C81.7922 63.0679 81.3975 62.9944 81 63.0001H9Z" fill="#1E407D"/>
</svg>
