<svg width="32" height="45" viewBox="0 0 32 45" fill="none" xmlns="http://www.w3.org/2000/svg">
<path d="M17.6229 32.1525L17.28 31.8825C17.1526 31.7973 17.0142 31.7292 16.8686 31.68L16.4571 31.5C16.0865 31.4237 15.7023 31.4393 15.3393 31.5453C14.9762 31.6514 14.6456 31.8445 14.3771 32.1075C14.1752 32.3262 14.0129 32.5773 13.8971 32.85C13.7242 33.26 13.6782 33.7111 13.7652 34.1467C13.8521 34.5823 14.0679 34.9828 14.3856 35.2979C14.7032 35.613 15.1085 35.8286 15.5503 35.9175C15.9921 36.0064 16.4508 35.9646 16.8686 35.7975C17.1417 35.667 17.3955 35.5005 17.6229 35.3025C17.94 34.9861 18.1549 34.5843 18.2403 34.1478C18.3257 33.7114 18.2779 33.2598 18.1029 32.85C17.9889 32.5898 17.826 32.3532 17.6229 32.1525ZM25.1429 0H6.85714C5.03852 0 3.29437 0.711159 2.00841 1.97703C0.722447 3.2429 0 4.95979 0 6.75V38.25C0 40.0402 0.722447 41.7571 2.00841 43.023C3.29437 44.2888 5.03852 45 6.85714 45H25.1429C26.9615 45 28.7056 44.2888 29.9916 43.023C31.2776 41.7571 32 40.0402 32 38.25V6.75C32 4.95979 31.2776 3.2429 29.9916 1.97703C28.7056 0.711159 26.9615 0 25.1429 0ZM27.4286 38.25C27.4286 38.8467 27.1878 39.419 26.7591 39.841C26.3305 40.2629 25.7491 40.5 25.1429 40.5H6.85714C6.25093 40.5 5.66955 40.2629 5.2409 39.841C4.81224 39.419 4.57143 38.8467 4.57143 38.25V6.75C4.57143 6.15326 4.81224 5.58097 5.2409 5.15901C5.66955 4.73705 6.25093 4.5 6.85714 4.5H25.1429C25.7491 4.5 26.3305 4.73705 26.7591 5.15901C27.1878 5.58097 27.4286 6.15326 27.4286 6.75V38.25Z" fill="#1E407D"/>
</svg>
