<?xml version="1.0" encoding="UTF-8"?>
<svg id="Layer_2" data-name="Layer 2" xmlns="http://www.w3.org/2000/svg" viewBox="0 0 252.97 301.11">
  <defs>
    <style>
      .cls-1 {
        fill: #21409a;
        stroke-width: 0px;
      }
    </style>
  </defs>
  <g id="Layer_1-2" data-name="Layer 1">
    <g>
      <path class="cls-1" d="M0,145.96c74.52-11.57,74.34-49.19,74.34-49.19,0,0,.26-43.66,0-57.7-.26-14.04-25.53-21.45-25.53-21.45L0,0v145.96Z"/>
      <path class="cls-1" d="M252.97,301.11c-74.52-11.57-74.34-49.19-74.34-49.19,0,0-.26-43.66,0-57.7s25.53-21.45,25.53-21.45l48.8-17.62v145.96Z"/>
      <path class="cls-1" d="M252.6,0s-60.6,20.94-63.32,23.15-7.49,4.94-8.17,13.11,0,49.7,0,49.7c0,0-1.36,13.11-10.89,16.34-8.58,2.91-127.28,49.15-150.85,58.34-2.61,1.02-17.84,12.3-18.35,20.47-.51,8.17-1.02,120-1.02,120l65.28-25.19s7.4-5.11,7.66-13.02-.77-48.26-.77-48.26c0,0,1.79-14.04,14.04-18.13,12.26-4.09,151.15-57.96,151.15-57.96,0,0,14.38-4.09,15.23-22.47.85-18.38,0-116.09,0-116.09Z"/>
    </g>
  </g>
</svg>